<?xml version="1.0" standalone="no"?>
<!DOCTYPE svg PUBLIC "-//W3C//DTD SVG 20010904//EN"
 "http://www.w3.org/TR/2001/REC-SVG-20010904/DTD/svg10.dtd">
<svg version="1.0" xmlns="http://www.w3.org/2000/svg"
 width="256.000000pt" height="256.000000pt" viewBox="0 0 256.000000 256.000000"
 preserveAspectRatio="xMidYMid meet">
<metadata>
Created by potrace 1.14, written by Peter Selinger 2001-2017
</metadata>
<g transform="translate(0.000000,256.000000) scale(0.100000,-0.100000)"
fill="#000000" stroke="none">
<path d="M1217 2384 c-1 -1 -33 -5 -72 -8 -38 -3 -82 -8 -97 -11 -16 -3 -38
-7 -50 -9 -13 -2 -43 -10 -68 -17 -25 -7 -49 -14 -55 -15 -5 -1 -39 -14 -74
-28 -183 -73 -334 -204 -394 -341 -42 -97 -41 -183 4 -318 16 -49 29 -90 29
-92 0 -2 -21 -18 -46 -36 -74 -50 -186 -170 -229 -244 -22 -38 -39 -70 -38
-72 1 -1 -6 -22 -16 -45 -14 -33 -18 -69 -18 -160 0 -65 4 -118 8 -118 11 0
12 -27 2 -33 -5 -2 -2 -2 6 0 9 2 12 -3 8 -17 -3 -11 -1 -18 4 -14 8 5 13 -12
12 -43 -1 -7 3 -10 8 -7 8 5 13 -9 10 -28 0 -5 3 -8 9 -8 13 0 42 -58 35 -70
-3 -5 0 -12 6 -16 8 -4 9 -3 5 4 -4 7 -5 12 -2 12 7 0 46 -38 46 -45 0 -8 74
-75 83 -75 4 0 6 -4 2 -9 -3 -5 4 -12 15 -16 11 -3 26 -12 32 -19 7 -6 30 -22
51 -35 20 -12 35 -26 32 -31 -3 -4 4 -6 15 -3 12 3 22 -1 26 -11 3 -9 10 -13
15 -10 5 3 9 -2 9 -10 0 -9 5 -16 11 -16 5 0 7 4 4 10 -3 6 1 7 9 4 9 -3 13
-11 9 -17 -3 -6 -1 -7 5 -3 6 4 32 -2 56 -14 25 -11 50 -20 55 -20 6 0 11 -5
11 -11 0 -6 6 -9 14 -6 7 3 19 0 25 -6 6 -6 11 -7 11 -1 1 5 8 -2 16 -16 8
-14 13 -18 10 -8 -4 14 0 15 32 6 20 -5 44 -12 52 -15 8 -3 21 -5 28 -4 6 1
12 -6 12 -16 0 -10 4 -14 8 -8 10 14 39 18 46 6 3 -5 16 -7 28 -3 16 4 19 2
13 -9 -7 -11 -5 -11 10 1 10 8 16 10 12 4 -4 -6 10 -11 36 -12 116 -3 147 -7
147 -17 0 -5 5 -3 10 5 8 12 10 10 10 -10 1 -25 1 -25 10 -2 5 12 15 22 22 22
9 0 8 -3 -2 -10 -11 -7 -4 -8 23 -6 21 2 40 6 44 9 3 4 14 2 24 -4 11 -5 19
-6 19 -1 0 4 21 8 48 8 26 0 68 3 94 7 33 4 47 3 45 -4 -1 -6 6 -13 16 -14 9
-2 17 1 17 7 0 6 -7 8 -14 5 -9 -4 -13 -1 -10 6 6 18 52 15 65 -3 8 -12 9 -11
5 6 -4 13 -2 21 6 22 14 1 47 7 91 17 17 3 26 2 23 -4 -9 -14 6 -20 29 -10 17
6 17 8 3 8 -10 1 -18 6 -18 11 0 9 17 14 48 13 6 -1 12 3 12 7 0 4 11 10 25
12 13 3 22 1 19 -3 -3 -5 2 -6 10 -3 9 3 13 10 10 15 -3 5 2 10 10 10 25 2 29
4 66 24 19 10 41 18 49 16 8 -1 10 2 5 10 -5 8 -3 10 5 5 7 -5 10 -14 7 -22
-3 -8 0 -14 5 -14 6 0 9 9 6 20 -4 14 4 25 32 41 20 12 47 22 60 23 13 0 26 8
28 16 4 13 3 13 -6 0 -5 -8 -13 -12 -16 -8 -4 4 6 15 22 25 15 10 34 24 42 31
10 10 16 10 27 1 12 -10 13 -9 8 5 -4 10 0 18 10 22 9 3 13 10 10 15 -3 5 3 6
13 2 10 -3 15 -3 11 2 -4 4 7 23 25 40 39 39 111 142 121 173 4 12 12 20 17
17 5 -3 6 1 3 10 -4 8 -2 21 4 28 36 44 43 250 12 332 -6 14 -7 31 -4 37 4 7
2 8 -5 4 -8 -6 -10 6 -6 43 10 104 -69 206 -177 226 -12 3 -39 17 -61 32 -22
16 -48 32 -58 38 -24 12 -24 8 11 114 47 144 45 221 -10 338 -94 201 -384 364
-706 398 -60 7 -213 13 -217 9z"/>
<path d="M2380 680 c-9 -6 -10 -10 -3 -10 6 0 15 5 18 10 8 12 4 12 -15 0z"/>
<path d="M2361 644 c0 -11 3 -14 6 -6 3 7 2 16 -1 19 -3 4 -6 -2 -5 -13z"/>
<path d="M2344 604 c-18 -14 -18 -15 4 -4 12 6 22 13 22 15 0 8 -5 6 -26 -11z"/>
<path d="M2255 520 c-3 -5 -1 -10 4 -10 6 0 11 5 11 10 0 6 -2 10 -4 10 -3 0
-8 -4 -11 -10z"/>
<path d="M2186 481 c-3 -5 0 -11 7 -14 8 -3 14 1 14 9 0 16 -13 19 -21 5z"/>
<path d="M393 447 c0 -8 6 -14 14 -14 9 0 10 4 2 14 -6 7 -12 13 -14 13 -1 0
-2 -6 -2 -13z"/>
<path d="M2155 431 c-3 -5 -2 -12 3 -15 5 -3 9 1 9 9 0 17 -3 19 -12 6z"/>
<path d="M433 408 c-2 -18 0 -20 7 -8 12 18 13 30 2 30 -4 0 -9 -10 -9 -22z"/>
<path d="M2095 420 c-3 -5 -1 -10 4 -10 6 0 11 5 11 10 0 6 -2 10 -4 10 -3 0
-8 -4 -11 -10z"/>
<path d="M2066 402 c-3 -5 1 -9 9 -9 8 0 12 4 9 9 -3 4 -7 8 -9 8 -2 0 -6 -4
-9 -8z"/>
<path d="M480 380 c-9 -6 -10 -10 -3 -10 6 0 15 5 18 10 8 12 4 12 -15 0z"/>
<path d="M1975 359 c-6 -8 -4 -10 5 -4 10 6 12 4 6 -11 -6 -15 -5 -17 5 -6 9
9 10 15 2 23 -8 8 -13 7 -18 -2z"/>
<path d="M558 343 c7 -3 16 -2 19 1 4 3 -2 6 -13 5 -11 0 -14 -3 -6 -6z"/>
<path d="M576 322 c-3 -5 1 -9 9 -9 8 0 12 4 9 9 -3 4 -7 8 -9 8 -2 0 -6 -4
-9 -8z"/>
<path d="M620 308 c-10 -22 -10 -22 4 -4 8 10 20 15 27 10 8 -4 10 -3 5 4 -11
18 -24 14 -36 -10z"/>
<path d="M1896 313 c-6 -14 -5 -15 5 -6 7 7 10 15 7 18 -3 3 -9 -2 -12 -12z"/>
<path d="M1930 318 c0 -6 3 -8 7 -5 3 4 13 1 22 -6 14 -11 14 -10 2 6 -15 20
-31 22 -31 5z"/>
<path d="M650 296 c0 -2 8 -10 18 -17 15 -13 16 -12 3 4 -13 16 -21 21 -21 13z"/>
<path d="M710 290 c8 -5 20 -10 25 -10 6 0 3 5 -5 10 -8 5 -19 10 -25 10 -5 0
-3 -5 5 -10z"/>
<path d="M1821 284 c0 -11 3 -14 6 -6 3 7 2 16 -1 19 -3 4 -6 -2 -5 -13z"/>
<path d="M1936 287 c3 -10 9 -15 12 -12 3 3 0 11 -7 18 -10 9 -11 8 -5 -6z"/>
<path d="M1797 269 c12 -12 24 -21 27 -18 2 2 -8 13 -22 23 l-27 19 22 -24z"/>
<path d="M786 264 c-5 -14 -4 -15 9 -4 17 14 19 20 6 20 -5 0 -12 -7 -15 -16z"/>
<path d="M820 266 c0 -2 7 -7 16 -10 8 -3 12 -2 9 4 -6 10 -25 14 -25 6z"/>
<path d="M1690 260 c-9 -6 -10 -10 -3 -10 6 0 15 5 18 10 8 12 4 12 -15 0z"/>
<path d="M1654 240 c0 -13 4 -16 10 -10 7 7 7 13 0 20 -6 6 -10 3 -10 -10z"/>
<path d="M810 241 c0 -6 4 -12 8 -15 5 -3 9 1 9 9 0 8 -4 15 -9 15 -4 0 -8 -4
-8 -9z"/>
<path d="M920 240 c-9 -6 -10 -10 -3 -10 6 0 15 5 18 10 8 12 4 12 -15 0z"/>
<path d="M1710 246 c0 -2 7 -7 16 -10 8 -3 12 -2 9 4 -6 10 -25 14 -25 6z"/>
<path d="M1770 239 c0 -5 5 -7 10 -4 6 3 10 8 10 11 0 2 -4 4 -10 4 -5 0 -10
-5 -10 -11z"/>
<path d="M960 231 c0 -6 4 -13 10 -16 6 -3 7 1 4 9 -7 18 -14 21 -14 7z"/>
<path d="M880 220 c8 -5 20 -10 25 -10 6 0 3 5 -5 10 -8 5 -19 10 -25 10 -5 0
-3 -5 5 -10z"/>
<path d="M936 221 c-3 -5 2 -15 12 -22 15 -12 16 -12 5 2 -7 9 -10 19 -6 22 3
4 4 7 0 7 -3 0 -8 -4 -11 -9z"/>
<path d="M1070 220 c0 -6 7 -10 15 -10 8 0 15 2 15 4 0 2 -7 6 -15 10 -8 3
-15 1 -15 -4z"/>
<path d="M1115 210 c-8 -13 3 -30 18 -30 7 0 6 4 -3 10 -13 9 -13 11 0 20 9 6
10 10 3 10 -6 0 -15 -4 -18 -10z"/>
<path d="M1393 200 c-1 -11 2 -20 7 -20 4 0 7 7 6 15 -3 23 -12 26 -13 5z"/>
<path d="M1429 207 c7 -7 7 -16 -1 -26 -10 -13 -10 -14 2 -4 19 17 21 40 4 40
-10 0 -11 -4 -5 -10z"/>
<path d="M1465 209 c-4 -6 -5 -12 -2 -15 2 -3 7 2 10 11 7 17 1 20 -8 4z"/>
<path d="M1150 206 c0 -2 7 -6 15 -10 8 -3 15 -1 15 4 0 6 -7 10 -15 10 -8 0
-15 -2 -15 -4z"/>
<path d="M1265 199 c-6 -8 -4 -10 5 -4 10 6 12 4 6 -11 -6 -15 -5 -17 5 -6 9
9 10 15 2 23 -8 8 -13 7 -18 -2z"/>
<path d="M1308 192 c-4 -12 1 -18 13 -18 12 0 15 4 9 12 -6 6 -7 14 -3 17 3 4
2 7 -4 7 -6 0 -13 -8 -15 -18z"/>
<path d="M1357 203 c-11 -11 -8 -21 9 -27 14 -5 15 -4 5 8 -9 11 -9 15 1 19 7
3 8 6 2 6 -6 1 -14 -2 -17 -6z"/>
<path d="M1226 185 c-11 -8 -15 -15 -9 -15 6 0 16 7 23 15 16 19 11 19 -14 0z"/>
<path d="M1160 166 c0 -2 8 -10 18 -17 15 -13 16 -12 3 4 -13 16 -21 21 -21
13z"/>
</g>
</svg>
